name rise49.25peak52.1432fall72.8391.mot
datacolumns 19
datarows 20
range 23.74657300000000 23.77824000000000
endheader
time	ground_force1_vx	ground_force1_vy	ground_force1_vz	ground_force1_px	ground_force1_py	ground_force1_pz	ground_force2_vx	ground_force2_vy	ground_force2_vz	ground_force2_px	ground_force2_py	ground_force2_pz	ground_torque1_x	ground_torque1_y	ground_torque1_z	ground_torque2_x	ground_torque2_y	ground_torque2_z	
23.74657300000000	-3.60573200000000	46.04762100000000	-10.30150100000000	0.32687300000000	0.00000000000000	0.08008800000000	-46.66986100000000	809.51843599999995	-59.63205100000000	0.14325000000000	0.00000000000000	-0.09598500000000	0.00000000000000	-7.22813100000000	0.00000000000000	0.00000000000000	-24.57239100000000	0.00000000000000	
23.74823900000000	-3.84351900000000	52.71111600000000	-11.35627900000000	0.33084500000000	0.00000000000000	0.08098200000000	-47.38923100000000	807.23069399999997	-59.34384000000000	0.14245400000000	0.00000000000000	-0.09588000000000	0.00000000000000	-8.03095300000000	0.00000000000000	0.00000000000000	-24.52605100000000	0.00000000000000	
23.74991200000000	-4.00106500000000	59.32478700000000	-12.28724600000000	0.33462200000000	0.00000000000000	0.08180900000000	-48.12193300000000	804.79665599999998	-59.03043700000000	0.14167000000000	0.00000000000000	-0.09577000000000	0.00000000000000	-8.75822600000000	0.00000000000000	0.00000000000000	-24.47906200000000	0.00000000000000	
23.75157100000000	-4.07130200000000	65.82165800000000	-13.07827900000000	0.33822200000000	0.00000000000000	0.08257800000000	-48.86733600000000	802.21407899999997	-58.69155400000000	0.14089800000000	0.00000000000000	-0.09565400000000	0.00000000000000	-9.39735800000000	0.00000000000000	0.00000000000000	-24.43134700000000	0.00000000000000	
23.75323900000000	-4.05077400000000	72.15945700000000	-13.72139000000000	0.34166300000000	0.00000000000000	0.08329800000000	-49.62472100000000	799.48073999999997	-58.32693300000000	0.14014000000000	0.00000000000000	-0.09553400000000	0.00000000000000	-9.94138500000000	0.00000000000000	0.00000000000000	-24.38281400000000	0.00000000000000	
23.75490500000000	-3.93934200000000	78.32019800000000	-14.21616500000000	0.34495400000000	0.00000000000000	0.08397600000000	-50.39328800000000	796.59443599999997	-57.93634800000000	0.13939400000000	0.00000000000000	-0.09540800000000	0.00000000000000	-10.38870100000000	0.00000000000000	0.00000000000000	-24.33335400000000	0.00000000000000	
23.75657100000000	-3.73968300000000	84.30783900000000	-14.56866600000000	0.34810800000000	0.00000000000000	0.08461700000000	-51.17214800000000	793.55298700000003	-57.51960700000000	0.13866200000000	0.00000000000000	-0.09527700000000	0.00000000000000	-10.74239100000000	0.00000000000000	0.00000000000000	-24.28284600000000	0.00000000000000	
23.75823900000000	-3.45664600000000	90.14454300000000	-14.79000000000000	0.35113200000000	0.00000000000000	0.08522600000000	-51.96032600000000	790.35423800000001	-57.07655400000000	0.13794400000000	0.00000000000000	-0.09514000000000	0.00000000000000	-11.00929200000000	0.00000000000000	0.00000000000000	-24.23115100000000	0.00000000000000	
23.75990500000000	-3.09654600000000	95.86609199999999	-14.89471600000000	0.35403400000000	0.00000000000000	0.08580700000000	-52.75676300000000	786.99606400000005	-56.60707000000000	0.13724000000000	0.00000000000000	-0.09499800000000	0.00000000000000	-11.19889500000000	0.00000000000000	0.00000000000000	-24.17811700000000	0.00000000000000	
23.76157500000000	-2.66647200000000	101.51698600000000	-14.89920300000000	0.35682000000000	0.00000000000000	0.08636400000000	-53.56031100000000	783.47637499999996	-56.11107700000000	0.13655000000000	0.00000000000000	-0.09485000000000	0.00000000000000	-11.32222900000000	0.00000000000000	0.00000000000000	-24.12357800000000	0.00000000000000	
23.76323900000000	-2.17366300000000	107.14567700000001	-14.82020900000000	0.35949400000000	0.00000000000000	0.08689800000000	-54.36973900000000	779.79311700000005	-55.58853600000000	0.13587400000000	0.00000000000000	-0.09469700000000	0.00000000000000	-11.39079200000000	0.00000000000000	0.00000000000000	-24.06735200000000	0.00000000000000	
23.76490600000000	-1.62497300000000	112.80029700000000	-14.67359500000000	0.36206100000000	0.00000000000000	0.08741400000000	-55.18373000000000	775.94428100000005	-55.03945300000000	0.13521200000000	0.00000000000000	-0.09453800000000	0.00000000000000	-11.41563600000000	0.00000000000000	0.00000000000000	-24.00924600000000	0.00000000000000	
23.76657400000000	-1.02647800000000	118.52513300000000	-14.47335800000000	0.36452400000000	0.00000000000000	0.08791200000000	-56.00088400000000	771.92790900000000	-54.46388100000000	0.13456400000000	0.00000000000000	-0.09437300000000	0.00000000000000	-11.40663400000000	0.00000000000000	0.00000000000000	-23.94905300000000	0.00000000000000	
23.76824600000000	-0.38321100000000	124.35798300000000	-14.23097600000000	0.36688800000000	0.00000000000000	0.08839500000000	-56.81972100000000	767.74209800000006	-53.86191800000000	0.13393000000000	0.00000000000000	-0.09420300000000	0.00000000000000	-11.37196200000000	0.00000000000000	0.00000000000000	-23.88655300000000	0.00000000000000	
23.76990600000000	0.30097400000000	130.32844900000001	-13.95505300000000	0.36915400000000	0.00000000000000	0.08886400000000	-57.63867900000000	763.38500799999997	-53.23371200000000	0.13331100000000	0.00000000000000	-0.09402700000000	0.00000000000000	-11.31780000000000	0.00000000000000	0.00000000000000	-23.82151400000000	0.00000000000000	
23.77157600000000	1.02341000000000	136.45712100000000	-13.65124200000000	0.37132500000000	0.00000000000000	0.08932100000000	-58.45612000000000	758.85487300000000	-52.57946100000000	0.13270500000000	0.00000000000000	-0.09384600000000	0.00000000000000	-11.24823600000000	0.00000000000000	0.00000000000000	-23.75369600000000	0.00000000000000	
23.77324000000000	1.78253400000000	142.75555800000001	-13.32240700000000	0.37340200000000	0.00000000000000	0.08976800000000	-59.27033300000000	754.15000699999996	-51.89941700000000	0.13211200000000	0.00000000000000	-0.09365900000000	0.00000000000000	-11.16534700000000	0.00000000000000	0.00000000000000	-23.68284700000000	0.00000000000000	
23.77491000000000	2.57773100000000	149.22691300000000	-12.96895700000000	0.37538800000000	0.00000000000000	0.09020400000000	-60.07953400000000	749.26881500000002	-51.19388300000000	0.13153300000000	0.00000000000000	-0.09346700000000	0.00000000000000	-11.06941600000000	0.00000000000000	0.00000000000000	-23.60870500000000	0.00000000000000	
23.77657800000000	3.40912600000000	155.86704900000001	-12.58930600000000	0.37728500000000	0.00000000000000	0.09063100000000	-60.88187200000000	744.20980499999996	-50.46321900000000	0.13096600000000	0.00000000000000	-0.09326900000000	0.00000000000000	-10.95924300000000	0.00000000000000	0.00000000000000	-23.53100400000000	0.00000000000000	
23.77824000000000	4.27735000000000	162.66596200000001	-12.18040300000000	0.37909200000000	0.00000000000000	0.09105100000000	-61.67543200000000	738.97159899999997	-49.70783900000000	0.13041200000000	0.00000000000000	-0.09306600000000	0.00000000000000	-10.83251900000000	0.00000000000000	0.00000000000000	-23.44946600000000	0.00000000000000	
